<svg width="401" height="209" viewBox="0 0 401 209" fill="none" xmlns="http://www.w3.org/2000/svg">
<path d="M12.33 130.242L6.86684 111.145L127.148 11.6387L144.156 20.2103L12.33 130.242ZM2.83727 31.8734C6.5627 29.1733 19.0956 20.2733 28.35 15.8071C43.6912 8.40334 60.1702 3.77481 77.1146 2.99738C89.7477 2.41776 102.222 4.67379 114.751 7.58167L4.37523 97.9418L2.83727 31.8734ZM160.327 30.3003L161.853 28.3199L160.327 30.3003C160.835 30.6915 161.163 31.3455 161.161 32.105L161.129 43.4301C161.127 44.1751 160.792 44.8802 160.217 45.3535L26.8263 155.101C25.6289 156.086 23.8326 155.755 23.0654 154.408L16.8315 143.458C16.227 142.396 16.4785 141.053 17.4261 140.282L154.826 28.5084C154.829 28.506 154.832 28.5037 154.835 28.5014C155.697 27.8217 156.857 27.7958 157.687 28.3738C158.59 29.0026 159.469 29.6388 160.327 30.3003ZM94.9273 197.242C94.0624 197.653 93.2741 198.041 92.5379 198.404C89.0172 200.138 86.6872 201.286 82.8581 201.504C77.9995 201.78 73.0319 199.771 68.0248 196.684C64.5683 194.553 61.3456 192.081 58.235 189.696C56.7947 188.592 55.3784 187.506 53.9741 186.481C46.0747 180.714 39.0032 174.35 32.4186 167.119C32.2548 166.939 32.2566 166.638 32.4814 166.453L160.941 60.2717C161.274 59.9965 161.682 60.2371 161.69 60.589C162.192 81.2034 161.794 102.224 156.099 121.802C146.911 153.394 124.782 183.06 94.9273 197.242Z" stroke="#B0E8A3" stroke-width="5"/>
<path d="M173.5 83.502V86.002H176H215.884V204V206.5H218.384H234.706H237.206V204V86.002H277.09H279.59V83.502V69V66.5H277.09H176H173.5V69V83.502ZM299.781 204V206.5H302.281H350.983C361.82 206.5 370.848 204.89 377.925 201.51C384.926 198.166 390.2 193.56 393.567 187.635C396.871 181.82 398.5 175.302 398.5 168.141C398.5 160.697 397.031 154.225 393.959 148.84C390.979 143.616 387.222 139.514 382.66 136.628C380.364 135.176 378.044 134.042 375.702 133.243C377.536 132.397 379.301 131.408 380.994 130.278C384.696 127.837 387.644 124.529 389.842 120.417C392.158 116.166 393.235 110.934 393.235 104.859C393.235 97.8761 391.651 91.4588 388.45 85.6597C385.206 79.7364 380.286 75.0786 373.806 71.6687C367.24 68.1692 359.06 66.5 349.404 66.5H302.281H299.781V69V204ZM374.831 156.762L374.837 156.773C376.926 160.246 377.968 164.018 377.968 168.141C377.968 173.347 376.021 177.743 371.993 181.465C368.221 184.947 361.448 186.998 350.983 186.998H321.103V145.064H351.773C357.313 145.064 361.97 146.181 365.834 148.313L365.842 148.318L365.851 148.322C369.785 150.453 372.753 153.268 374.831 156.762ZM361.082 123.176L361.072 123.181C357.504 124.928 353.455 125.826 348.877 125.826H321.103V86.002H349.404C358.031 86.002 363.78 88.0212 367.238 91.5212L367.247 91.5305C370.895 95.1841 372.703 99.577 372.703 104.859C372.703 109.169 371.634 112.8 369.576 115.855L369.57 115.864L369.564 115.873C367.499 118.994 364.693 121.427 361.082 123.176Z" fill="white" stroke="white" stroke-width="5"/>
<path d="M172 59.1818V12.6364H181.841V31.8409H201.818V12.6364H211.636V59.1818H201.818V39.9545H181.841V59.1818H172Z" fill="white"/>
<path d="M262.523 35.9091C262.523 40.9848 261.561 45.303 259.636 48.8636C257.727 52.4242 255.121 55.1439 251.818 57.0227C248.53 58.8864 244.833 59.8182 240.727 59.8182C236.591 59.8182 232.879 58.8788 229.591 57C226.303 55.1212 223.705 52.4015 221.795 48.8409C219.886 45.2803 218.932 40.9697 218.932 35.9091C218.932 30.8333 219.886 26.5152 221.795 22.9545C223.705 19.3939 226.303 16.6818 229.591 14.8182C232.879 12.9394 236.591 12 240.727 12C244.833 12 248.53 12.9394 251.818 14.8182C255.121 16.6818 257.727 19.3939 259.636 22.9545C261.561 26.5152 262.523 30.8333 262.523 35.9091ZM252.545 35.9091C252.545 32.6212 252.053 29.8485 251.068 27.5909C250.098 25.3333 248.727 23.6212 246.955 22.4545C245.182 21.2879 243.106 20.7045 240.727 20.7045C238.348 20.7045 236.273 21.2879 234.5 22.4545C232.727 23.6212 231.348 25.3333 230.364 27.5909C229.394 29.8485 228.909 32.6212 228.909 35.9091C228.909 39.197 229.394 41.9697 230.364 44.2273C231.348 46.4848 232.727 48.197 234.5 49.3636C236.273 50.5303 238.348 51.1136 240.727 51.1136C243.106 51.1136 245.182 50.5303 246.955 49.3636C248.727 48.197 250.098 46.4848 251.068 44.2273C252.053 41.9697 252.545 39.197 252.545 35.9091Z" fill="white"/>
<path d="M269.812 59.1818V12.6364H288.449C291.873 12.6364 294.729 13.1439 297.017 14.1591C299.305 15.1742 301.025 16.5833 302.176 18.3864C303.328 20.1742 303.903 22.2349 303.903 24.5682C303.903 26.3864 303.54 27.9848 302.812 29.3636C302.085 30.7273 301.085 31.8485 299.812 32.7273C298.555 33.5909 297.116 34.2045 295.494 34.5682V35.0227C297.267 35.0985 298.926 35.5985 300.472 36.5227C302.032 37.447 303.297 38.7424 304.267 40.4091C305.237 42.0606 305.722 44.0303 305.722 46.3182C305.722 48.7879 305.108 50.9924 303.881 52.9318C302.669 54.8561 300.873 56.3788 298.494 57.5C296.116 58.6212 293.184 59.1818 289.699 59.1818H269.812ZM279.653 51.1364H287.676C290.419 51.1364 292.419 50.6136 293.676 49.5682C294.934 48.5076 295.562 47.0985 295.562 45.3409C295.562 44.053 295.252 42.9167 294.631 41.9318C294.009 40.947 293.123 40.1742 291.972 39.6136C290.835 39.053 289.479 38.7727 287.903 38.7727H279.653V51.1364ZM279.653 32.1136H286.949C288.297 32.1136 289.494 31.8788 290.54 31.4091C291.6 30.9242 292.434 30.2424 293.04 29.3636C293.661 28.4848 293.972 27.4318 293.972 26.2045C293.972 24.5227 293.373 23.1667 292.176 22.1364C290.994 21.1061 289.313 20.5909 287.131 20.5909H279.653V32.1136Z" fill="white"/>
<path d="M354.898 35.9091C354.898 40.9848 353.936 45.303 352.011 48.8636C350.102 52.4242 347.496 55.1439 344.193 57.0227C340.905 58.8864 337.208 59.8182 333.102 59.8182C328.966 59.8182 325.254 58.8788 321.966 57C318.678 55.1212 316.08 52.4015 314.17 48.8409C312.261 45.2803 311.307 40.9697 311.307 35.9091C311.307 30.8333 312.261 26.5152 314.17 22.9545C316.08 19.3939 318.678 16.6818 321.966 14.8182C325.254 12.9394 328.966 12 333.102 12C337.208 12 340.905 12.9394 344.193 14.8182C347.496 16.6818 350.102 19.3939 352.011 22.9545C353.936 26.5152 354.898 30.8333 354.898 35.9091ZM344.92 35.9091C344.92 32.6212 344.428 29.8485 343.443 27.5909C342.473 25.3333 341.102 23.6212 339.33 22.4545C337.557 21.2879 335.481 20.7045 333.102 20.7045C330.723 20.7045 328.648 21.2879 326.875 22.4545C325.102 23.6212 323.723 25.3333 322.739 27.5909C321.769 29.8485 321.284 32.6212 321.284 35.9091C321.284 39.197 321.769 41.9697 322.739 44.2273C323.723 46.4848 325.102 48.197 326.875 49.3636C328.648 50.5303 330.723 51.1136 333.102 51.1136C335.481 51.1136 337.557 50.5303 339.33 49.3636C341.102 48.197 342.473 46.4848 343.443 44.2273C344.428 41.9697 344.92 39.197 344.92 35.9091Z" fill="white"/>
<path d="M362.188 59.1818V12.6364H393.551V20.75H372.028V31.8409H391.938V39.9545H372.028V51.0682H393.642V59.1818H362.188Z" fill="white"/>
</svg>
